<svg width="15" height="15" viewBox="0 0 15 15" fill="none" xmlns="http://www.w3.org/2000/svg">
<path d="M4.10491 0.478715C3.84375 0.0870392 3.35491 -0.0903868 2.9029 0.0468673C2.45089 0.184121 2.14286 0.599231 2.14286 1.07125V7.49876H1.07143C0.478795 7.49876 0 7.97748 0 8.57001C0 9.16255 0.478795 9.64126 1.07143 9.64126H2.14286V13.9263C2.14286 14.5188 2.62165 14.9975 3.21429 14.9975C3.80692 14.9975 4.28571 14.5188 4.28571 13.9263V9.64126H7.64062L10.8951 14.5222C11.1562 14.9138 11.6451 15.0913 12.0971 14.954C12.5491 14.8167 12.8571 14.4016 12.8571 13.9296V9.64126H13.9286C14.5212 9.64126 15 9.16255 15 8.57001C15 7.97748 14.5212 7.49876 13.9286 7.49876H12.8571V1.07125C12.8571 0.478715 12.3783 0 11.7857 0C11.1931 0 10.7143 0.478715 10.7143 1.07125V7.49876H8.78906L4.10491 0.478715ZM10.2154 9.64126H10.7143V10.3878L10.2154 9.64126ZM6.21094 7.49876H4.28571V4.60973L6.21094 7.49876Z" fill="#747474"/>
</svg>
