<svg width="45" height="46" viewBox="0 0 45 46" fill="none" xmlns="http://www.w3.org/2000/svg">
<circle cx="22.5" cy="23.2" r="22.5" fill="#D9D9D9"/>
<path d="M30 32.0635C28.4864 32.0635 27.2727 33.2772 27.2727 34.7908C27.2727 35.5141 27.5601 36.2078 28.0715 36.7193C28.583 37.2308 29.2767 37.5181 30 37.5181C30.7233 37.5181 31.417 37.2308 31.9285 36.7193C32.4399 36.2078 32.7273 35.5141 32.7273 34.7908C32.7273 34.0675 32.4399 33.3738 31.9285 32.8623C31.417 32.3509 30.7233 32.0635 30 32.0635ZM8.18182 10.2454V12.9726H10.9091L15.8182 23.3226L13.9636 26.6635C13.7591 27.0454 13.6364 27.4954 13.6364 27.9726C13.6364 28.696 13.9237 29.3896 14.4352 29.9011C14.9466 30.4126 15.6403 30.6999 16.3636 30.6999H32.7273V27.9726H16.9364C16.846 27.9726 16.7592 27.9367 16.6953 27.8728C16.6314 27.8089 16.5955 27.7221 16.5955 27.6317C16.5955 27.5635 16.6091 27.509 16.6364 27.4681L17.8636 25.2454H28.0227C29.0455 25.2454 29.9455 24.6726 30.4091 23.8408L35.2909 15.0181C35.3864 14.7999 35.4546 14.5681 35.4546 14.3363C35.4546 13.9746 35.3109 13.6278 35.0552 13.372C34.7994 13.1163 34.4526 12.9726 34.0909 12.9726H13.9227L12.6409 10.2454M16.3636 32.0635C14.85 32.0635 13.6364 33.2772 13.6364 34.7908C13.6364 35.5141 13.9237 36.2078 14.4352 36.7193C14.9466 37.2308 15.6403 37.5181 16.3636 37.5181C17.087 37.5181 17.7807 37.2308 18.2921 36.7193C18.8036 36.2078 19.0909 35.5141 19.0909 34.7908C19.0909 34.0675 18.8036 33.3738 18.2921 32.8623C17.7807 32.3509 17.087 32.0635 16.3636 32.0635Z" fill="black"/>
</svg>
