<svg width="12" height="20" viewBox="0 0 12 20" fill="none" xmlns="http://www.w3.org/2000/svg">
<path fill-rule="evenodd" clip-rule="evenodd" d="M4.238 1.57744C5.22244 0.567586 6.55768 0.000168973 7.95 0H10.65C10.8489 0 11.0397 0.0810436 11.1803 0.225302C11.321 0.369561 11.4 0.565218 11.4 0.769231V4.46154C11.4 4.66555 11.321 4.86121 11.1803 5.00547C11.0397 5.14973 10.8489 5.23077 10.65 5.23077H7.95C7.9303 5.23077 7.9108 5.23475 7.8926 5.24248C7.8744 5.25021 7.85786 5.26154 7.84393 5.27583C7.83001 5.29012 7.81896 5.30708 7.81142 5.32574C7.80388 5.34441 7.8 5.36441 7.8 5.38462V7.38462H10.65C10.764 7.38455 10.8766 7.41115 10.979 7.46239C11.0815 7.51363 11.1713 7.58817 11.2415 7.68033C11.3117 7.77249 11.3604 7.87985 11.3841 7.99424C11.4078 8.10864 11.4057 8.22707 11.378 8.34051L10.478 12.0328C10.4374 12.1993 10.3437 12.3471 10.2118 12.4526C10.0799 12.5582 9.91732 12.6155 9.75 12.6154H7.8V19.2308C7.8 19.4348 7.72098 19.6304 7.58033 19.7747C7.43968 19.919 7.24891 20 7.05 20H3.45C3.25109 20 3.06032 19.919 2.91967 19.7747C2.77902 19.6304 2.7 19.4348 2.7 19.2308V12.6154H0.75C0.551088 12.6154 0.360322 12.5343 0.21967 12.3901C0.0790175 12.2458 0 12.0502 0 11.8462V8.15385C0 8.05283 0.0193993 7.9528 0.0570903 7.85948C0.0947813 7.76615 0.150026 7.68135 0.21967 7.60992C0.289314 7.53849 0.371993 7.48183 0.462987 7.44317C0.553982 7.40451 0.651509 7.38462 0.75 7.38462H2.7V5.38462C2.70016 3.95659 3.2534 2.58712 4.238 1.57744ZM7.95 1.53846C6.95544 1.53846 6.00161 1.94368 5.29835 2.66497C4.59509 3.38627 4.2 4.36455 4.2 5.38462V8.15385C4.2 8.35786 4.12098 8.55352 3.98033 8.69777C3.83968 8.84203 3.64891 8.92308 3.45 8.92308H1.5V11.0769H3.45C3.64891 11.0769 3.83968 11.158 3.98033 11.3022C4.12098 11.4465 4.2 11.6421 4.2 11.8462V18.4615H6.3V11.8462C6.3 11.6421 6.37902 11.4465 6.51967 11.3022C6.66032 11.158 6.85109 11.0769 7.05 11.0769H9.164L9.689 8.92308H7.05C6.85109 8.92308 6.66032 8.84203 6.51967 8.69777C6.37902 8.55352 6.3 8.35786 6.3 8.15385V5.38462C6.3 4.93579 6.47384 4.50534 6.78327 4.18797C7.09271 3.8706 7.51239 3.69231 7.95 3.69231H9.9V1.53846H7.95Z" fill="black"/>
</svg>
