<svg width="21" height="20" viewBox="0 0 21 20" fill="none" xmlns="http://www.w3.org/2000/svg">
<path d="M15.7388 5.86167C16.4016 5.86167 16.9388 5.32441 16.9388 4.66167C16.9388 3.99893 16.4016 3.46167 15.7388 3.46167C15.0761 3.46167 14.5388 3.99893 14.5388 4.66167C14.5388 5.32441 15.0761 5.86167 15.7388 5.86167Z" fill="black"/>
<path d="M10.4003 4.86499C9.38465 4.86499 8.39185 5.16615 7.54741 5.73039C6.70296 6.29463 6.0448 7.09661 5.65614 8.03491C5.26748 8.97321 5.16579 10.0057 5.36393 11.0018C5.56206 11.9979 6.05113 12.9128 6.76927 13.631C7.48741 14.3491 8.40238 14.8382 9.39847 15.0363C10.3946 15.2345 11.427 15.1328 12.3653 14.7441C13.3036 14.3555 14.1056 13.6973 14.6699 12.8528C15.2341 12.0084 15.5353 11.0156 15.5353 9.99999C15.5353 8.6381 14.9943 7.332 14.0313 6.369C13.0683 5.406 11.7621 4.86499 10.4003 4.86499ZM10.4003 13.3333C9.74099 13.3333 9.09652 13.1378 8.54836 12.7716C8.0002 12.4053 7.57295 11.8847 7.32066 11.2756C7.06837 10.6665 7.00236 9.99629 7.13098 9.34969C7.25959 8.70309 7.57706 8.10914 8.04324 7.64297C8.50941 7.17679 9.10336 6.85932 9.74996 6.73071C10.3966 6.60209 11.0668 6.6681 11.6759 6.92039C12.285 7.17268 12.8056 7.59993 13.1718 8.14809C13.5381 8.69625 13.7336 9.34072 13.7336 9.99999C13.7336 10.884 13.3824 11.7319 12.7573 12.357C12.1322 12.9821 11.2843 13.3333 10.4003 13.3333Z" fill="black"/>
<path d="M10.4004 1.80167C13.0704 1.80167 13.3871 1.81167 14.4412 1.86C15.0753 1.86753 15.7033 1.98394 16.2979 2.20417C16.7293 2.37058 17.121 2.62545 17.448 2.9524C17.7749 3.27934 18.0298 3.67111 18.1962 4.1025C18.4164 4.69711 18.5329 5.32513 18.5404 5.95917C18.5887 7.01333 18.5987 7.33 18.5987 10.0008C18.5987 12.6717 18.5887 12.9867 18.5404 14.0408C18.5329 14.6749 18.4164 15.3029 18.1962 15.8975C18.0298 16.3289 17.7749 16.7207 17.448 17.0476C17.121 17.3745 16.7293 17.6294 16.2979 17.7958C15.7033 18.0161 15.0753 18.1325 14.4412 18.14C13.3871 18.1883 13.0704 18.1983 10.4004 18.1983C7.73039 18.1983 7.41372 18.1883 6.35956 18.14C5.72552 18.1325 5.0975 18.0161 4.50289 17.7958C4.07151 17.6294 3.67973 17.3745 3.35279 17.0476C3.02584 16.7207 2.77097 16.3289 2.60456 15.8975C2.38433 15.3029 2.26792 14.6749 2.26039 14.0408C2.21206 12.9867 2.20206 12.67 2.20206 10C2.20206 7.33 2.21206 7.01333 2.26039 5.95917C2.26792 5.32513 2.38433 4.69711 2.60456 4.1025C2.77097 3.67111 3.02584 3.27934 3.35279 2.9524C3.67973 2.62545 4.07151 2.37058 4.50289 2.20417C5.0975 1.98394 5.72552 1.86753 6.35956 1.86C7.41372 1.81167 7.73039 1.80167 10.4004 1.80167ZM10.4004 0C7.68456 0 7.34372 0.0116667 6.27706 0.06C5.4477 0.0767468 4.62719 0.233974 3.85039 0.525C3.18599 0.781914 2.58261 1.17481 2.07891 1.67851C1.5752 2.18222 1.18231 2.7856 0.925391 3.45C0.634273 4.22706 0.477043 5.04786 0.460391 5.8775C0.412057 6.94417 0.400391 7.28333 0.400391 10C0.400391 12.7167 0.412057 13.0567 0.460391 14.1233C0.477137 14.9527 0.634365 15.7732 0.925391 16.55C1.18231 17.2144 1.5752 17.8178 2.07891 18.3215C2.58261 18.8252 3.18599 19.2181 3.85039 19.475C4.62745 19.7661 5.44826 19.9233 6.27789 19.94C7.34456 19.9883 7.68456 20 10.4004 20C13.1162 20 13.4571 19.9883 14.5237 19.94C15.3534 19.9233 16.1742 19.7661 16.9512 19.475C17.6156 19.2181 18.219 18.8252 18.7227 18.3215C19.2264 17.8178 19.6193 17.2144 19.8762 16.55C20.1671 15.7729 20.324 14.9521 20.3404 14.1225C20.3887 13.0558 20.4004 12.7167 20.4004 10C20.4004 7.28333 20.3887 6.94333 20.3404 5.87667C20.3236 5.04731 20.1664 4.2268 19.8754 3.45C19.6185 2.7856 19.2256 2.18222 18.7219 1.67851C18.2182 1.17481 17.6148 0.781914 16.9504 0.525C16.1733 0.234167 15.3525 0.0772193 14.5229 0.0608333C13.4562 0.0108333 13.1171 0 10.4004 0Z" fill="black"/>
</svg>
