<svg width="17" height="17" viewBox="0 0 17 17" fill="none" xmlns="http://www.w3.org/2000/svg">
<path d="M0.0671387 5.42697H2.08395V0.0776978H4.10075L7.54949 5.42697H12.168V0.0776978H14.1848V5.42697H16.2016V7.21006H14.1848V8.99315H16.2016V10.7762H14.1848V16.1255H12.168L8.70916 10.7762H4.10075V16.1255H2.08395V10.7762H0.0671387V8.99315H2.08395V7.21006H0.0671387V5.42697ZM4.10075 5.42697H5.24025L4.10075 3.67063V5.42697ZM4.10075 7.21006V8.99315H7.54949L6.39991 7.21006H4.10075ZM12.168 12.5593V10.7762H11.0083L12.168 12.5593ZM8.69907 7.21006L9.85874 8.99315H12.168V7.21006H8.69907Z" fill="black"/>
</svg>
