<svg width="23" height="27" viewBox="0 0 23 27" fill="none" xmlns="http://www.w3.org/2000/svg">
<path d="M20 18.75V12.25C19.375 12.375 18.75 12.5 18.125 12.5H17.5V20H5V11.25C5 7.75 7.75 5 11.25 5C11.375 3.375 12.125 2 13.125 0.875C12.75 0.375 12 0 11.25 0C9.875 0 8.75 1.125 8.75 2.5V2.875C5 4 2.5 7.375 2.5 11.25V18.75L0 21.25V22.5H22.5V21.25L20 18.75ZM8.75 23.75C8.75 25.125 9.875 26.25 11.25 26.25C12.625 26.25 13.75 25.125 13.75 23.75H8.75ZM22.5 5.625C22.5 8 20.5 10 18.125 10C15.75 10 13.75 8 13.75 5.625C13.75 3.25 15.75 1.25 18.125 1.25C20.5 1.25 22.5 3.25 22.5 5.625Z" fill="black"/>
<path d="M18 11C20.7614 11 23 8.76142 23 6C23 3.23858 20.7614 1 18 1C15.2386 1 13 3.23858 13 6C13 8.76142 15.2386 11 18 11Z" fill="#DB9200"/>
</svg>
