<svg width="21" height="22" viewBox="0 0 21 22" fill="none" xmlns="http://www.w3.org/2000/svg">
<path d="M16.5375 18.2625L11.6375 13.3625C11.2 13.7125 10.6969 13.9896 10.1281 14.1937C9.55937 14.3979 8.95417 14.5 8.3125 14.5C6.72292 14.5 5.37775 13.9493 4.277 12.848C3.17625 11.7467 2.62558 10.4015 2.625 8.8125C2.625 7.22292 3.17567 5.87775 4.277 4.777C5.37833 3.67625 6.7235 3.12558 8.3125 3.125C9.90208 3.125 11.2473 3.67567 12.348 4.777C13.4488 5.87833 13.9994 7.2235 14 8.8125C14 9.45417 13.8979 10.0594 13.6937 10.6281C13.4896 11.1969 13.2125 11.7 12.8625 12.1375L17.7844 17.0594C17.9448 17.2198 18.025 17.4167 18.025 17.65C18.025 17.8833 17.9375 18.0875 17.7625 18.2625C17.6021 18.4229 17.3979 18.5031 17.15 18.5031C16.9021 18.5031 16.6979 18.4229 16.5375 18.2625ZM8.3125 12.75C9.40625 12.75 10.3361 12.367 11.102 11.6011C11.8679 10.8352 12.2506 9.90567 12.25 8.8125C12.25 7.71875 11.867 6.78892 11.1011 6.023C10.3352 5.25708 9.40567 4.87442 8.3125 4.875C7.21875 4.875 6.28892 5.25796 5.523 6.02388C4.75708 6.78979 4.37442 7.71933 4.375 8.8125C4.375 9.90625 4.75796 10.8361 5.52388 11.602C6.28979 12.3679 7.21933 12.7506 8.3125 12.75Z" fill="black" fill-opacity="0.4"/>
</svg>
