<svg width="120" height="26" viewBox="0 0 120 26" fill="none" xmlns="http://www.w3.org/2000/svg">
<path d="M12 1.69138L14.2165 8.85419L14.3255 9.20639H14.6942H21.9329L16.056 13.6897L15.7784 13.9015L15.8816 14.235L18.1136 21.4477L12.3033 17.0152L12 16.7839L11.6967 17.0152L5.88645 21.4477L8.1184 14.235L8.22162 13.9015L7.94401 13.6897L2.06711 9.20639H9.30583H9.6745L9.78349 8.85419L12 1.69138Z" fill="#FCF20E" stroke="black"/>
<path d="M36 1.69138L38.2165 8.85419L38.3255 9.20639H38.6942H45.9329L40.056 13.6897L39.7784 13.9015L39.8816 14.235L42.1136 21.4477L36.3033 17.0152L36 16.7839L35.6967 17.0152L29.8864 21.4477L32.1184 14.235L32.2216 13.9015L31.944 13.6897L26.0671 9.20639H33.3058H33.6745L33.7835 8.85419L36 1.69138Z" fill="#FCF20E" stroke="black"/>
<path d="M60 1.69138L62.2165 8.85419L62.3255 9.20639H62.6942H69.9329L64.056 13.6897L63.7784 13.9015L63.8816 14.235L66.1136 21.4477L60.3033 17.0152L60 16.7839L59.6967 17.0152L53.8864 21.4477L56.1184 14.235L56.2216 13.9015L55.944 13.6897L50.0671 9.20639H57.3058H57.6745L57.7835 8.85419L60 1.69138Z" fill="#FCF20E" stroke="black"/>
<path d="M84 1.69138L86.2165 8.85419L86.3255 9.20639H86.6942H93.9329L88.056 13.6897L87.7784 13.9015L87.8816 14.235L90.1136 21.4477L84.3033 17.0152L84 16.7839L83.6967 17.0152L77.8864 21.4477L80.1184 14.235L80.2216 13.9015L79.944 13.6897L74.0671 9.20639H81.3058H81.6745L81.7835 8.85419L84 1.69138Z" fill="#FCF20E" stroke="black"/>
<path d="M108 1.69138L110.217 8.85419L110.325 9.20639H110.694H117.933L112.056 13.6897L111.778 13.9015L111.882 14.235L114.114 21.4477L108.303 17.0152L108 16.7839L107.697 17.0152L101.886 21.4477L104.118 14.235L104.222 13.9015L103.944 13.6897L98.0671 9.20639H105.306H105.675L105.783 8.85419L108 1.69138Z" fill="white" stroke="black"/>
</svg>
