<svg width="115" height="84" viewBox="0 0 115 84" fill="none" xmlns="http://www.w3.org/2000/svg">
<path d="M56.636 0.333496C52.2151 0.388297 49.0403 0.918036 46.9336 1.86791L18.0638 11.3849L2.01189 24.8275C-1.3706 28.0425 1.03275 34.2532 11.5956 30.2711L23.1672 20.8819C37.8543 13.0838 67.822 16.6622 53.6096 32.3169C46.6369 41.3773 49.9007 45.7979 58.891 47.6611L62.9856 39.1853C70.0769 29.3577 83.3102 27.5858 82.7761 19.658L114.583 21.0646L114.287 0.589232L56.636 0.333496ZM40.5841 19.2196C35.4213 19.1648 30.3476 20.48 26.6684 22.3798L15.0671 31.7689C18.2419 33.3216 21.4463 32.4813 24.6211 30.5999C28.3596 31.7689 31.2674 29.9605 33.6411 26.3437C34.6202 23.8777 36.0741 22.1423 40.5841 19.2196ZM16.966 36.7558C16.8473 36.7558 16.699 36.7558 16.5803 36.7741C15.6012 36.9019 14.444 37.5413 13.6726 39.0026C12.8714 40.464 12.6934 42.5464 13.4055 44.7749C14.1176 46.9852 15.6012 48.8667 17.2627 50.0358C18.865 51.1866 20.3485 51.5154 21.3276 51.3876C22.3365 51.2779 23.4639 50.6203 24.2354 49.1773C25.0365 47.7159 25.2442 45.6152 24.5321 43.4049C23.7903 41.1764 22.3068 39.2949 20.6749 38.1441C19.2507 37.1211 17.9452 36.7558 16.966 36.7558ZM41.4742 56.2648C39.1302 56.2831 36.1928 56.7397 33.3147 57.5983C30.0212 58.603 27.4399 59.9912 26.0453 61.2699C24.6508 62.5303 24.5321 63.4802 24.9772 64.0465C25.4222 64.5945 26.7278 65.1242 29.2201 65.1973C31.7125 65.2886 35.0653 64.8685 38.3587 63.8638C41.6522 62.8591 44.2336 61.4891 45.6281 60.2104C47.0226 58.95 47.1413 57.9819 46.6963 57.4339C46.2512 56.8676 44.9457 56.3561 42.4533 56.2831C42.127 56.2648 41.8302 56.2648 41.4742 56.2648ZM12.5154 73.7279C11.1209 73.7462 9.845 73.8741 8.71751 74.075C6.19548 74.5317 4.74161 75.3537 4.26688 76.3218C3.76247 77.3082 4.26688 78.4773 5.95812 79.7377C7.67903 80.9799 10.5571 82.1672 14.1176 82.8248C17.6485 83.4824 21.0903 83.4642 23.642 82.9892C26.1937 82.5325 27.6475 81.7105 28.1223 80.7424C28.597 79.756 28.1223 78.5869 26.4014 77.3265C24.7101 76.0844 21.8321 74.897 18.2715 74.2394C16.2539 73.8741 14.2956 73.7097 12.5154 73.7279Z" fill="#DB9200"/>
</svg>
