<svg width="115" height="84" viewBox="0 0 115 84" fill="none" xmlns="http://www.w3.org/2000/svg">
<path d="M111.275 2.77899C110.22 2.00207 108.963 1.38574 107.578 0.965891C106.193 0.546045 104.707 0.33108 103.206 0.333517H71.9252C69.8733 0.336302 67.9056 0.928106 66.4492 1.98051L3.91547 47.4997C1.78169 49.0564 0.583313 51.1659 0.583313 53.3651C0.583313 55.5644 1.78169 57.6739 3.91547 59.2306L33.6874 80.9064C35.8261 82.4606 38.7244 83.3335 41.7462 83.3335C44.768 83.3335 47.6663 82.4606 49.805 80.9064L112.313 35.4057C113.762 34.3471 114.577 32.9149 114.583 31.4207V8.63331C114.592 7.54655 114.305 6.4693 113.737 5.46425C113.169 4.45919 112.332 3.5464 111.275 2.77899ZM90.1548 24.0472C88.5443 24.0472 86.97 23.6995 85.631 23.0481C84.2919 22.3967 83.2482 21.4708 82.6319 20.3875C82.0156 19.3042 81.8544 18.1122 82.1685 16.9622C82.4827 15.8122 83.2583 14.7559 84.397 13.9268C85.5358 13.0977 86.9867 12.533 88.5663 12.3043C90.1458 12.0755 91.783 12.1929 93.2709 12.6416C94.7588 13.0904 96.0305 13.8502 96.9253 14.8251C97.82 15.8001 98.2976 16.9463 98.2976 18.1188C98.2976 19.6911 97.4397 21.199 95.9126 22.3108C94.3856 23.4226 92.3144 24.0472 90.1548 24.0472Z" fill="#DB9200"/>
</svg>
