<svg width="115" height="84" viewBox="0 0 115 84" fill="none" xmlns="http://www.w3.org/2000/svg">
<path d="M10.4167 0C7.65399 0 5.00447 1.09747 3.05097 3.05097C1.09747 5.00447 0 7.65399 0 10.4167V67.7083H10.4167C10.4167 71.8523 12.0629 75.8266 14.9931 78.7569C17.9234 81.6871 21.8977 83.3333 26.0417 83.3333C30.1857 83.3333 34.16 81.6871 37.0902 78.7569C40.0205 75.8266 41.6667 71.8523 41.6667 67.7083H72.9167C72.9167 71.8523 74.5629 75.8266 77.4931 78.7569C80.4234 81.6871 84.3977 83.3333 88.5417 83.3333C92.6857 83.3333 96.66 81.6871 99.5902 78.7569C102.52 75.8266 104.167 71.8523 104.167 67.7083H114.583V41.6667L98.9583 20.8333H83.3333V0M46.875 10.4167L67.7083 31.25L46.875 52.0833V36.4583H15.625V26.0417H46.875M83.3333 28.6458H96.3542L106.615 41.6667H83.3333M26.0417 59.8958C28.1137 59.8958 30.1008 60.7189 31.5659 62.1841C33.0311 63.6492 33.8542 65.6363 33.8542 67.7083C33.8542 69.7803 33.0311 71.7675 31.5659 73.2326C30.1008 74.6977 28.1137 75.5208 26.0417 75.5208C23.9697 75.5208 21.9825 74.6977 20.5174 73.2326C19.0523 71.7675 18.2292 69.7803 18.2292 67.7083C18.2292 65.6363 19.0523 63.6492 20.5174 62.1841C21.9825 60.7189 23.9697 59.8958 26.0417 59.8958ZM88.5417 59.8958C90.6137 59.8958 92.6008 60.7189 94.0659 62.1841C95.5311 63.6492 96.3542 65.6363 96.3542 67.7083C96.3542 69.7803 95.5311 71.7675 94.0659 73.2326C92.6008 74.6977 90.6137 75.5208 88.5417 75.5208C86.4697 75.5208 84.4825 74.6977 83.0174 73.2326C81.5523 71.7675 80.7292 69.7803 80.7292 67.7083C80.7292 65.6363 81.5523 63.6492 83.0174 62.1841C84.4825 60.7189 86.4697 59.8958 88.5417 59.8958Z" fill="#DB9200"/>
</svg>
